<?xml version="1.0" encoding="UTF-8"?>
<svg id="_Слой_2" data-name="Слой 2" xmlns="http://www.w3.org/2000/svg" viewBox="0 0 444.2183 29.88">
  <defs>
    <style>
      .cls-1, .cls-2 {
        fill: #fff;
      }

      .cls-3, .cls-2 {
        opacity: .5;
      }

      .cls-2 {
        isolation: isolate;
      }
    </style>
  </defs>
  <g id="_Слой_1-2" data-name="Слой 1">
    <path class="cls-1" d="M38.7545,15.007c0,2.258-.7963,3.321-2.5217,3.321s-2.5217-1.063-2.5217-3.321v-6.241h-2.2563v6.507c0,3.32,1.7254,5.179,4.778,5.179s4.7775-1.859,4.7775-5.179v-6.507h-2.2558v6.241Z"/>
    <path class="cls-1" d="M51.6283,14.343c0,2.789-1.725,3.984-3.583,3.984-2.257,0-3.451-1.992-3.451-3.984,0-2.656,1.725-3.984,3.451-3.984,2.123,0,3.583,1.727,3.583,3.984Zm-3.052-5.976c-1.593,0-2.92,.797-3.849,2.125v-1.726h-2.257V25.233h2.257v-6.64c.929,1.328,2.256,1.992,3.716,1.992,1.593,0,3.052-.664,3.981-1.859,.93-1.063,1.46-2.656,1.46-4.25,0-1.593-.53-3.054-1.46-4.117-.929-1.328-2.388-1.992-3.848-1.992Z"/>
    <path class="cls-1" d="M19.9081,8.899c-.6636-.399-1.1945-.532-1.8581-.532-1.3272,0-2.5217,.797-3.0526,1.992v-1.726h-2.2562v11.421h2.2562v-5.578c0-1.859,.2655-3.851,2.5217-3.851,.3982,0,.6637,0,.9291,.133l1.4599-1.859Z"/>
    <path class="cls-1" d="M9.1578,8.633v1.859c-.9291-1.328-2.2563-2.125-3.849-2.125s-2.9198,.664-3.8489,1.86c-.929,1.062-1.4599,2.523-1.4599,4.116,0,1.594,.5309,3.188,1.4599,4.25,.9291,1.195,2.389,1.859,3.9817,1.859,1.4599,0,2.7871-.796,3.7162-1.992v1.727c0,1.992-.3982,3.984-3.1854,3.984-1.9908,0-3.318-1.195-3.318-3.055v-.132H.5309v.132c0,3.055,2.2562,5.18,5.4415,5.18,4.9107,0,5.5743-3.586,5.5743-6.773V8.766h-2.3889v-.133Zm-3.4508,9.694c-2.2563,0-3.4508-1.992-3.4508-3.984,0-2.656,1.7254-3.984,3.4508-3.984,2.1235,0,3.5835,1.594,3.5835,3.984-.1327,2.789-1.8581,3.984-3.5835,3.984Z"/>
    <path class="cls-1" d="M74.5893,13.281c-1.062,.398-2.124,.664-2.92,.664-.664,0-1.062-.133-1.327-.531-.266-.399-.266-.93-.133-1.727l.664-2.922c.265-1.46,.132-2.523-.399-3.187-.53-.664-1.327-.929-2.388-.929-1.195,0-2.257,.398-3.319,1.328-.398-.797-1.327-1.328-2.521-1.328-1.062,0-1.991,.398-2.92,1.062-.398-.664-1.46-1.195-2.655-1.195-.53,0-1.194,.133-1.725,.265h-.133l-.398,2.125,.531-.265c.796-.266,1.46-.266,1.725,0,.266,.265,.266,.664,.133,1.195l-1.46,6.242h2.522l1.062-4.383c.531-2.125,1.46-3.187,2.787-3.187,.398,0,.663,.133,.796,.398,.266,.266,.266,.797,.133,1.594l-1.327,5.578h2.521l1.195-5.18c.265-1.328,1.46-2.39,2.654-2.39,.399,0,.664,.133,.797,.398,.265,.266,.265,.797,.132,1.594l-.663,3.187c-.266,1.328-.133,2.391,.531,3.055,.663,.796,1.725,1.195,3.052,1.195,1.062,0,2.257-.266,3.451-.797l.133-.133,.531-2.39-1.062,.664Z"/>
    <path class="cls-1" d="M30.1278,11.953c-.2655-.797-.6636-1.328-1.1945-1.859-.5309-.531-1.0618-.93-1.8581-1.195-.6636-.266-1.5927-.399-2.5217-.399s-1.7254,.133-2.5217,.399c-.6636,.265-1.3272,.664-1.8581,1.195-.5309,.531-.9291,1.195-1.1945,1.859-.2654,.797-.3982,1.594-.3982,2.39,0,.93,.1328,1.727,.3982,2.524,.2654,.796,.6636,1.328,1.1945,1.859,.5309,.531,1.0618,.929,1.8581,1.195,.6636,.266,1.5926,.399,2.5217,.399s1.7254-.133,2.5217-.399c.6636-.266,1.3272-.664,1.8581-1.195s.929-1.195,1.1945-1.859c.2654-.797,.3981-1.594,.3981-2.524,0-.796-.1327-1.726-.3981-2.39Zm-3.8489,6.242c-.3982,.265-.9291,.398-1.5927,.398-.5309,0-1.0618-.133-1.5926-.398-.3982-.266-.7964-.532-1.0618-.93-.2655-.398-.5309-.797-.6636-1.328s-.1327-1.062-.1327-1.594c0-.531,0-1.062,.1327-1.46,.1327-.532,.3981-.93,.6636-1.328,.2654-.399,.6636-.664,1.0618-.93,.3981-.266,.929-.398,1.5926-.398,.5309,0,1.0618,.132,1.5927,.398,.3981,.266,.7963,.531,1.0617,.93,.2655,.398,.5309,.796,.6636,1.328,.1328,.531,.1328,1.062,.1328,1.46,0,.532,0,1.063-.1328,1.594-.1327,.531-.3981,.93-.6636,1.328-.2654,.398-.6636,.797-1.0617,.93Z"/>
    <path class="cls-1" d="M384.2283,27.092c-.133,0-.398-.133-.664-.531l-.663-1.859h-4.115l-.663,1.859c-.133,.398-.398,.531-.664,.531-.265,0-.663-.265-.663-.664,0-.133,0-.265,.132-.398l3.186-7.968c.265-.664,.53-.664,.796-.664,.265,0,.531,.132,.796,.664l3.186,7.968c.132,.133,.132,.265,.132,.398-.132,.399-.531,.664-.796,.664Zm-1.858-3.718l-1.593-4.25-1.592,4.25h3.185Zm9.556-4.914c.133-.133,.133-.398,.133-.398,0-.399-.266-.664-.664-.664-.266,0-.531,.132-.664,.531l-2.787,7.304-2.787-7.304c-.133-.399-.398-.531-.664-.531-.398,0-.663,.265-.663,.664,0,.132,0,.265,.133,.398l3.052,7.835c.266,.664,.664,.797,.929,.797,.266,0,.664-.133,.929-.797l3.053-7.835Zm6.503,4.117c.531,0,.664-.399,.664-.531,0-.133-.133-.532-.664-.532h-3.981v-2.788h4.247c.53,0,.663-.399,.663-.532,0-.132-.133-.531-.663-.531h-4.778c-.531,0-.797,.266-.797,.797v7.968c0,.531,.266,.797,.797,.797h4.91c.531,0,.664-.398,.664-.531s-.133-.531-.664-.531h-4.379v-3.188h3.981v-.398Zm21.103,4.515c-.133,0-.398-.133-.664-.531l-.663-1.859h-4.115l-.663,1.859c-.133,.398-.398,.531-.664,.531-.265,0-.664-.265-.664-.664,0-.133,0-.265,.133-.398l3.186-7.968c.265-.664,.53-.664,.796-.664,.265,0,.531,.132,.796,.664l3.185,7.968c.133,.133,.133,.265,.133,.398-.132,.399-.398,.664-.796,.664Zm-1.726-3.718l-1.592-4.25-1.593,4.25h3.185Zm-7.432,3.718c.266,0,.664-.133,.664-.797v-8.101c0-.796-.531-.929-.797-.929-.265,0-.663,.133-.929,.797l-3.185,7.171-3.185-7.171c-.266-.664-.664-.797-.929-.797-.266,0-.797,.133-.797,.929v8.101c0,.664,.398,.664,.664,.664,.265,0,.664-.132,.664-.664v-6.109l2.787,6.242c.265,.531,.531,.664,.796,.664s.531-.133,.796-.664l2.788-6.374v6.241c0,.664,.398,.797,.663,.797Zm18.183-.664c0-.133,0-.398-.265-.531l-4.115-3.984,3.849-3.32c.265-.266,.266-.399,.266-.531,0-.399-.266-.532-.664-.532-.133,0-.398,.133-.531,.266l-4.38,3.984v-3.718c0-.664-.398-.797-.663-.797-.266,0-.664,.133-.664,.797v8.233c0,.664,.398,.797,.664,.797,.265,0,.663-.133,.663-.797v-4.249l4.645,4.781c.133,.265,.399,.265,.531,.265,.398,0,.664-.398,.664-.664Zm6.636-3.851c.531,0,.664-.399,.664-.531,0-.133-.133-.532-.664-.532h-3.982v-2.788h4.247c.531,0,.664-.399,.664-.532,0-.132-.133-.531-.664-.531h-4.778c-.53,0-.796,.266-.796,.797v7.968c0,.531,.266,.797,.796,.797h4.911c.531,0,.664-.398,.664-.531s-.133-.531-.664-.531h-4.38v-3.188h3.982v-.398Zm5.309,.133h-1.46v3.585c0,.664-.398,.797-.664,.797-.265,0-.663-.133-.663-.797v-8.101c0-.531,.265-.796,.796-.796h2.256c1.858,0,3.318,.664,3.318,2.656,0,1.328-.929,2.257-2.256,2.523l2.256,3.32c.133,.133,.133,.398,.133,.398,0,.399-.265,.664-.664,.664-.132,0-.398-.132-.53-.398l-2.522-3.851Zm-1.46-1.196h1.593c1.194,0,2.256-.398,2.256-1.593s-.929-1.461-2.124-1.461h-1.592v3.054h-.133Zm-61.716-4.116c-.398-.133-.796,0-.929,.398l-2.654,7.171-1.858-7.171c-.133-.266-.398-.531-.664-.531-.265,0-.531,.133-.663,.531l-1.858,7.171-2.655-7.171c-.133-.398-.531-.531-.929-.398-.398,.132-.531,.531-.398,.929l3.053,8.101c.132,.266,.265,.399,.53,.531,.531,.133,1.062,0,1.195-.531v-.133l1.593-6.241,1.592,6.241v.133c.133,.531,.797,.797,1.195,.531,.265-.132,.398-.265,.531-.531l3.052-8.101c.398-.398,.266-.797-.133-.929Z"/>
    <path class="cls-1" d="M417.6743,12.484h-.398c-.531,0-1.062-.399-1.195-.93l-1.858-5.843-1.858,5.843c-.133,.531-.664,0-1.195,0-.53,0-1.061,.531-1.194,0l-1.858-5.843-1.858,5.843c-.133,.531-.664,.93-1.195,.93h-.398c-.664-.266-1.062-.93-.796-1.594l3.052-9.429c.133-.531,.664,0,1.195,0s1.062-.531,1.194,0l1.858,5.843,1.859-5.843c.132-.531,.663,0,1.194,0s1.062-.531,1.195,0l3.052,9.429c.266,.664-.133,1.328-.796,1.594Zm-13.405-11.82h-.398c-.531,0-1.062,.399-1.195,.93l-1.858,5.843-1.858-5.843c-.133-.531-.664,0-1.194,0-.531,0-1.062-.531-1.195,0l-1.858,5.843-1.858-5.843c-.133-.531-.664-.93-1.195-.93h-.398c-.663,.266-1.062,.93-.796,1.594l3.052,9.429c.133,.531,.664,0,1.195,0s1.062,.531,1.194,0l1.859-5.844,1.858,5.844c.132,.531,.663,0,1.194,0s1.062,.531,1.195,0l3.052-9.429c.266-.664-.132-1.461-.796-1.594Z"/>
    <path class="cls-1" d="M414.2233,.531c.531,0,1.062,.399,1.195,.93,.132,.266,.132,.531,0,.797l-1.195,3.585-1.194-3.585c-.133-.266-.133-.531,0-.797,.132-.531,.663-.93,1.194-.93Zm-7.432,.93c-.133,.266-.133,.531,0,.797l1.194,3.585,1.195-3.585c.132-.266,.132-.531,0-.797-.133-.531-.664-.93-1.195-.93s-1.062,.399-1.194,.93Zm-5.973,11.023c.531,0,1.062-.399,1.195-.93,.132-.266,.132-.531,0-.797l-1.195-3.585-1.194,3.585c-.133,.266-.133,.531,0,.797,.132,.531,.663,.93,1.194,.93Zm-6.238,0c.531,0,1.062-.399,1.195-.93,.133-.266,.133-.531,0-.797l-1.195-3.585-1.194,3.585c-.133,.266-.133,.531,0,.797,.265,.531,.663,.93,1.194,.93Z"/>
    <path class="cls-1" d="M397.7663,.531c.531,0,1.061,.399,1.194,.93,.133,.266,.133,.531,0,.797l-1.194,3.585-1.195-3.585c-.133-.266-.133-.531,0-.797,.133-.531,.664-.93,1.195-.93Zm13.404,11.953c.531,0,1.062-.399,1.195-.93,.133-.266,.133-.531,0-.797l-1.195-3.585-1.194,3.585c-.133,.266-.133,.531,0,.797,.133,.531,.531,.93,1.194,.93Z"/>
    <path class="cls-1" d="M259.2043,20.851h-3.318V12.75l-2.123,8.234h-2.256l-2.124-8.234v8.234h-2.654V9.563h4.645l1.593,6.109,1.592-6.109h4.645v11.288Z"/>
    <path class="cls-1" d="M268.7603,20.851h-8.627V9.43h8.627v2.656h-5.176v1.726h4.115v2.524h-4.115v1.859h5.176v2.656Z"/>
    <path class="cls-1" d="M269.5573,9.43h4.247c1.593,0,2.92,.265,4.247,1.461,1.194,1.195,1.725,2.656,1.725,4.382,0,1.461-.531,3.055-1.592,4.117-1.195,1.195-2.522,1.594-4.115,1.594h-4.512V9.43Zm3.981,8.898c.531,0,.797,0,1.195-.266,.265-.133,.531-.398,.796-.797,.398-.664,.531-1.461,.531-2.257,0-.797-.265-1.727-.663-2.391-.531-.664-1.062-.664-1.859-.664h-.398v6.242h.398v.133Z"/>
    <path class="cls-1" d="M283.8913,20.851h-3.584V9.43h3.584v11.421Z"/>
    <path class="cls-1" d="M291.0583,18.593h-3.053l-.664,2.258h-2.919l3.583-11.421h3.716l3.584,11.421h-3.584l-.663-2.258Zm-.531-2.39l-.929-3.32-.929,3.32h1.858Z"/>
    <path class="cls-1" d="M304.5953,16.734c-.265,2.656-2.123,4.382-4.778,4.382-3.45,0-5.309-2.523-5.309-5.71,0-3.32,1.593-6.109,5.177-6.109,2.919,0,4.645,1.726,4.778,4.648l-3.318,.133c0-.93-.399-2.125-1.46-2.125-1.593,0-1.593,2.391-1.593,3.453,0,1.195,.133,3.054,1.593,3.054,1.061,0,1.46-.929,1.592-1.859l3.318,.133Z"/>
    <path class="cls-1" d="M316.0093,15.273c0,3.32-1.99,5.843-5.441,5.843s-5.442-2.656-5.442-5.843c0-3.453,1.991-5.976,5.442-5.976s5.441,2.523,5.441,5.976Zm-7.167,0c0,1.063,.133,3.187,1.726,3.187,1.592,0,1.725-2.124,1.725-3.187,0-1.062-.133-3.32-1.725-3.32-1.593-.133-1.726,2.125-1.726,3.32Z"/>
    <path class="cls-1" d="M329.0163,20.851h-3.318V12.75l-2.124,8.234h-2.256l-2.123-8.234v8.234h-2.655V9.563h4.645l1.593,6.109,1.593-6.109h4.645v11.288Z"/>
    <g class="cls-3">
      <g class="cls-3">
        <path class="cls-1" d="M192.5783,29.35l-3.052-11.687,5.972,10.492-.133,.133c-.796,.531-1.725,.796-2.654,1.062h-.133Zm-2.123-9.429l2.389,9.031c.796-.266,1.592-.532,2.256-.93l-4.645-8.101Z"/>
        <path class="cls-1" d="M187.2693,29.35h-.132c-.929-.266-1.726-.664-2.655-1.062l-.132-.133,5.441-9.429h.266v.265l-2.788,10.359Zm-2.389-1.328c.664,.398,1.46,.664,2.257,.93l2.389-9.031-4.646,8.101Z"/>
        <path class="cls-1" d="M189.9243,29.616h-.133v-12.085l3.053,11.686h-.133c-.929,.399-1.858,.399-2.787,.399Zm.133-9.562v9.296c.796,0,1.592-.133,2.389-.266l-2.389-9.03Z"/>
        <path class="cls-1" d="M189.9243,29.616c-.929,0-1.858-.133-2.787-.399h-.133l3.053-11.686v12.085h-.133Zm-2.522-.532c.797,.133,1.593,.266,2.389,.266v-9.296l-2.389,9.03Z"/>
        <path class="cls-1" d="M195.2333,28.288l-5.442-9.429,.133-.266,7.83,7.835-.132,.133c-.664,.664-1.46,1.195-2.257,1.727h-.132Zm-4.513-8.5l4.645,8.101c.664-.398,1.328-.929,1.859-1.461l-6.504-6.64Z"/>
        <path class="cls-1" d="M182.3593,26.561c-.797-.797-1.327-1.593-1.858-2.39l-.133-.133,9.29-5.445,.133-.133,.133,.399h-.133l-7.432,7.702Zm-1.46-2.39c.398,.664,.929,1.328,1.46,1.992l7.316-7.172-8.776,5.18Z"/>
        <path class="cls-1" d="M189.9243,18.991l-9.556-5.444,.133-.133c.531-.797,1.061-1.594,1.725-2.258l.133-.133,7.698,7.703-.133,.265Zm-9.025-5.577l8.096,4.648-6.636-6.507c-.531,.531-1.062,1.195-1.46,1.859Z"/>
        <path class="cls-1" d="M190.7203,19.788l-.796-.797-7.698-7.702,.133-.133c.663-.664,1.46-1.195,2.256-1.726l.133-.133,5.972,10.491Zm-8.096-8.499l6.504,6.507-4.646-8.101c-.663,.532-1.327,1.063-1.858,1.594Z"/>
        <path class="cls-1" d="M190.4553,19.921l-5.973-10.491,.133-.133c.796-.531,1.725-.797,2.654-1.062h.133l3.053,11.686Zm-5.575-10.226l4.646,8.101-2.389-9.03c-.797,.133-1.593,.531-2.257,.929Z"/>
        <path class="cls-1" d="M190.5883,18.991h-.664l-10.485-2.788v-.133c.265-.93,.664-1.727,1.062-2.656l.132-.133,9.955,5.71Zm-10.751-3.054l9.025,2.39-8.096-4.648c-.398,.797-.664,1.461-.929,2.258Z"/>
        <path class="cls-1" d="M189.9243,18.991h-10.883v-.132c0-.93,.132-1.86,.398-2.789v-.133l10.75,2.922-.265,.132Zm-10.485-.265h9.29l-9.025-2.391c-.132,.664-.265,1.594-.265,2.391Z"/>
        <path class="cls-1" d="M184.6153,28.288l-.133-.133c-.796-.531-1.592-1.063-2.256-1.727l-.133-.132,7.698-7.703h.531l-.265,.266-5.442,9.429Zm-1.991-1.86c.531,.532,1.195,1.063,1.858,1.461l4.646-8.101-6.504,6.64Z"/>
        <path class="cls-1" d="M180.6333,24.436l-.132-.132c-.531-.797-.797-1.727-1.062-2.656v-.133l10.485-2.789h.664l-.531,.265-9.424,5.445Zm-.796-2.656c.265,.797,.531,1.594,.929,2.258l8.728-4.893-9.657,2.635Z"/>
        <path class="cls-1" d="M179.5723,21.78v-.133c-.266-.929-.399-1.859-.399-2.788v-.133l11.097,.213-10.698,2.841Zm-.133-2.789c0,.797,.133,1.594,.265,2.391l9.025-2.391h-9.29Z"/>
        <path class="cls-1" d="M189.5263,19.921l3.052-11.686h.133c.929,.265,1.725,.664,2.654,1.062l.133,.133-5.972,10.491Zm3.318-11.155l-2.389,9.03,4.645-8.101c-.796-.398-1.46-.796-2.256-.929Z"/>
        <path class="cls-1" d="M189.1283,19.788l5.972-10.491,.133,.133c.796,.531,1.592,1.062,2.256,1.726l.133,.133-8.494,8.499Zm6.237-9.96l-4.645,8.101,6.504-6.507c-.531-.664-1.195-1.195-1.859-1.594Z"/>
        <path class="cls-1" d="M197.4893,26.561l-7.565-7.57,.265-.265c.664,.664,1.328,1.195,2.124,1.594,.796,.398,1.593,.796,2.522,1.062l4.645,2.656-.133,.133c-.531,.929-1.062,1.726-1.858,2.39Zm-5.574-5.976l5.574,5.578c.531-.531,1.062-1.195,1.46-1.859l-4.247-2.524c-.929-.265-1.726-.664-2.655-1.062,0-.133-.132-.133-.132-.133Z"/>
        <path class="cls-1" d="M199.2143,24.436l-5.707-3.32,1.195,.266c.929,.266,1.725,.398,2.654,.398s1.858-.132,2.655-.398l.265-.133-.133,.266c-.265,.929-.663,1.726-1.061,2.656l.132,.265Zm-3.583-2.523l3.451,1.992c.398-.664,.663-1.328,.929-2.125-.797,.133-1.726,.266-2.522,.266-.664,.133-1.194,0-1.858-.133Z"/>
        <path class="cls-1" d="M189.7913,20.054V7.969h.133c.929,0,1.858,.133,2.787,.398h.133l-3.053,11.687Zm.266-11.687v9.296l2.389-9.03c-.797-.133-1.593-.266-2.389-.266Z"/>
        <path class="cls-1" d="M190.0573,20.054l-3.053-11.687h.133c.929-.265,1.858-.398,2.787-.398h.133v12.085Zm-2.655-11.421l2.389,9.03V8.367c-.796,0-1.592,.133-2.389,.266Z"/>
      </g>
      <path class="cls-2" d="M197.4893,22.178h-.133V10.093l3.053,11.686h-.133c-.929,.266-1.858,.399-2.787,.399Zm.133-9.695v9.296c.796,0,1.592-.132,2.389-.265l-2.389-9.031Z"/>
      <path class="cls-2" d="M200.1433,21.779l-3.052-11.686,5.972,10.491-.133,.133c-.796,.531-1.725,.797-2.654,1.062h-.133Zm-2.256-9.296l2.389,9.031c.796-.266,1.593-.531,2.256-.93l-4.645-8.101Z"/>
      <path class="cls-2" d="M197.6223,22.178h-.133c-.929,0-1.858-.133-2.787-.398h-.133l2.92-10.757,.266,.265v10.89h-.133Zm-2.655-.664c.797,.133,1.593,.266,2.389,.266V12.483l-2.389,9.031Z"/>
      <path class="cls-2" d="M194.8353,21.779h-.133c-.929-.265-1.726-.664-2.655-1.062l-.132-.133,5.972-10.491-3.052,11.686Zm-2.522-1.328c.663,.399,1.46,.664,2.256,.93l2.389-9.03-4.645,8.1Z"/>
      <path class="cls-2" d="M192.1803,20.717l-.133-.133c-.796-.531-1.592-1.062-2.256-1.726l-.133-.133,8.495-8.499-5.973,10.491Zm-1.991-1.859c.531,.531,1.195,1.062,1.991,1.461l4.645-8.101-6.636,6.64Z"/>
      <path class="cls-2" d="M207.8413,14.21l-10.485-2.789h-.132v-.398h10.883v.132c0,.93-.133,1.86-.398,2.789l.132,.266Zm-9.158-2.789l9.026,2.39c.132-.796,.265-1.593,.265-2.39h-9.291Z"/>
      <path class="cls-2" d="M197.4893,11.554l-.265-.133,2.787-10.624h.132c.929,.266,1.726,.664,2.655,1.062l.133,.133-5.442,9.562Zm2.92-10.359l-2.389,9.031,4.645-8.101c-.796-.398-1.593-.664-2.256-.93Z"/>
      <path class="cls-2" d="M197.3563,11.82V.399h.133c.929,0,1.858,.132,2.787,.398h.133l-2.787,10.491-.266,.532Zm.266-11.023V10.093l2.389-9.03c-.797-.133-1.593-.266-2.389-.266Z"/>
      <path class="cls-2" d="M197.6223,12.484l-3.053-11.687h.133c.929-.266,1.858-.398,2.787-.398h.133V12.484Zm-2.655-11.421l2.389,9.03V.797c-.796,0-1.725,.133-2.389,.266Z"/>
      <path class="cls-2" d="M196.9583,11.952l5.84-10.092,.133,.132c.796,.532,1.592,1.063,2.256,1.727l.133,.133-7.698,7.702-.664,.398Zm5.973-9.694l-4.646,8.101,6.504-6.507c-.531-.664-1.195-1.196-1.858-1.594Z"/>
      <path class="cls-2" d="M197.4893,11.421h-.398l7.963-7.968,.133,.133c.663,.664,1.194,1.461,1.725,2.258l.133,.133-9.556,5.444Zm7.565-7.437l-6.636,6.641,8.096-4.648c-.398-.797-.929-1.461-1.46-1.993Z"/>
      <path class="cls-2" d="M206.7793,16.866l-9.423-5.445h-.132v-.398l.265,.132,10.485,2.789v.133c-.265,.93-.664,1.726-1.062,2.656l-.133,.133Zm-8.228-5.047l8.096,4.648c.398-.664,.663-1.46,.929-2.257l-9.025-2.391Z"/>
      <path class="cls-2" d="M196.9583,11.421l.398-.266,10.485-2.789v.133c.266,.93,.398,1.859,.398,2.789v.133h-11.281Zm10.751-2.656l-9.025,2.39h9.29c0-.797-.133-1.593-.265-2.39Z"/>
      <path class="cls-2" d="M196.2953,11.82l10.485-5.976,.132,.133c.531,.796,.797,1.726,1.062,2.656v.133l-11.679,3.054Zm10.352-5.711l-8.096,4.649,9.025-2.391c-.266-.797-.531-1.461-.929-2.258Z"/>
      <path class="cls-2" d="M198.2853,12.218l-8.494-8.499,.133-.133c.664-.664,1.46-1.195,2.256-1.726l.133-.133,5.972,10.491Zm-8.096-8.499l6.504,6.507-4.646-8.101c-.663,.531-1.327,1.063-1.858,1.594Z"/>
      <path class="cls-2" d="M197.8873,12.484l-5.972-10.492,.132-.133c.797-.531,1.726-.796,2.655-1.062h.133v.133l3.052,11.554Zm-5.574-10.359l4.645,8.101-2.389-9.031c-.796,.266-1.46,.532-2.256,.93Z"/>
      <path class="cls-2" d="M197.3563,11.421c-.663-.664-1.327-1.195-2.123-1.593-.797-.399-1.593-.797-2.522-1.063l-4.645-2.656,.133-.132c.53-.797,1.061-1.594,1.725-2.258l.133-.133,7.698,7.703-.399,.132Zm-4.645-3.054c.929,.266,1.725,.664,2.655,1.062,0,0,.132,0,.132,.133l-5.574-5.578c-.531,.532-1.062,1.196-1.46,1.86l4.247,2.523Z"/>
      <path class="cls-2" d="M193.7733,9.031l-1.195-.265c-.929-.266-1.858-.399-2.654-.399-.929,0-1.858,.133-2.654,.399l-.266,.132,.133-.265c.265-.93,.663-1.727,1.062-2.656l.132-.133,5.442,3.187Zm-5.442-2.922c-.398,.665-.663,1.329-.929,2.125,.797-.132,1.726-.265,2.522-.265,.664,0,1.194,0,1.725,.133l-3.318-1.993Z"/>
      <path class="cls-2" d="M205.0543,19.124l-7.698-7.703,.133-.266,9.556,5.445-.133,.133c-.531,.797-1.061,1.594-1.858,2.391Zm-6.636-7.039l6.636,6.64c.531-.531,1.062-1.195,1.46-1.992l-8.096-4.648Z"/>
      <path class="cls-2" d="M202.7983,20.717l-5.973-10.491,8.495,8.499-.133,.133c-.664,.664-1.46,1.195-2.256,1.726l-.133,.133Zm-4.513-8.499l4.646,8.101c.663-.399,1.327-.93,1.858-1.461l-6.504-6.64Z"/>
    </g>
    <path class="cls-1" d="M115.9983,18.858h-1.46v-4.914l-2.654,3.188c-.133,.132-.266,.132-.398,0l-2.655-3.188v4.914h-1.46v-6.773c0-.398,.398-.797,.797-.797,.265,0,.53,.133,.663,.399l2.787,3.452,2.92-3.585c.133-.133,.398-.266,.531-.266,.398,0,.796,.399,.796,.797v6.773h.133Z"/>
    <path class="cls-1" d="M153.8243,18.858h1.725l.929-1.992h3.318l1.062,1.992h1.725l-3.716-7.171c-.133-.266-.398-.399-.664-.399-.265,0-.53,.133-.663,.399l-3.716,7.171Zm4.247-5.445l1.062,2.125h-2.124l1.062-2.125Z"/>
    <path class="cls-1" d="M128.0763,18.858h-1.062l-5.043-5.047v5.047h-1.46v-6.773c0-.398,.398-.797,.796-.797,.265,0,.398,.133,.664,.266l4.645,4.648v-4.515c0-.266,.265-.532,.531-.532h.531c.265,0,.53,.266,.53,.532v7.171h-.132Z"/>
    <path class="cls-1" d="M134.3143,11.421c-.531-.133-1.062-.133-1.858-.133h-2.124c-.398,0-.796,.399-.796,.797v6.773h2.522c.796,0,1.459-.133,2.123-.266,1.991-.531,3.053-1.859,3.053-3.585,0-1.86-1.062-3.055-2.92-3.586Zm-.398,5.843c-.531,.133-1.062,.133-1.726,.133h-.929v-4.648h1.195c.663,0,1.194,0,1.592,.133,1.195,.265,1.726,.929,1.726,2.125-.133,1.062-.664,1.859-1.858,2.257Z"/>
    <path class="cls-1" d="M167.8923,15.803c1.195-.398,1.726-1.062,1.726-2.257,0-1.461-1.195-2.391-3.053-2.391h-2.522c-.398,0-.796,.399-.796,.797v6.773h1.46v-2.789h1.327l1.858,2.789h1.858l-1.858-2.922Zm-3.052-1.195v-1.859h1.858c.531,0,1.327,.133,1.327,.93,0,.398-.133,.929-1.593,.929h-1.592Z"/>
    <path class="cls-1" d="M117.4583,18.858h1.46v-7.039c0-.265-.265-.531-.531-.531h-.531c-.265,0-.531,.266-.531,.531v7.039h.133Z"/>
    <path class="cls-1" d="M152.8953,18.858h-1.593v-3.187h-3.982v3.187h-1.459v-7.039c0-.265,.265-.531,.53-.531h.531c.266,0,.531,.266,.531,.531v2.524h3.982v-2.524c0-.265,.265-.531,.531-.531h.531c.265,0,.53,.266,.53,.531v7.039h-.132Z"/>
    <path class="cls-1" d="M141.6133,14.343c-1.061-.133-1.725-.266-1.725-.93,0-.531,.531-.797,1.46-.797,1.062,0,1.858,.399,2.256,.531q.133,0,.133-.132l.398-.93v-.133q0-.133-.133-.133c-.796-.398-1.858-.664-2.787-.664-1.858,0-2.92,.797-2.92,2.258,0,.664,.266,1.195,.664,1.594,.531,.398,1.46,.531,2.256,.664,1.062,.132,1.726,.265,1.726,.796,0,.93-1.195,.93-1.726,.93-.796,0-1.592-.266-2.256-.664l-.133-.133-.132,.133-.531,.93-.133,.398,.133,.133c.531,.398,1.46,.797,2.92,.797,1.99,0,3.318-.93,3.318-2.391,.132-1.859-1.46-2.125-2.788-2.257Z"/>
    <path class="cls-1" d="M176.1213,15.405c0,.133-.133,.266-.266,.266h-3.318v1.726h3.982v1.461h-5.574v-6.773c0-.398,.398-.797,.796-.797h4.38c.133,0,.265,.133,.265,.266v.797c0,.132-.132,.265-.265,.265h-3.584v1.594h3.318c.133,0,.266,.133,.266,.266v.929Z"/>
    <path class="cls-1" d="M189.9243,29.88c-6.105,0-11.149-4.913-11.149-11.155,0-6.109,4.911-11.156,11.149-11.156,2.92,0,5.707,1.196,7.83,3.188l-.663,.664c-1.858-1.859-4.513-2.922-7.167-2.922-5.574,0-10.087,4.515-10.087,10.093s4.513,10.093,10.087,10.093c4.645,0,8.76-3.187,9.821-7.703l.929,.266c-1.194,5.179-5.574,8.632-10.75,8.632Z"/>
    <path class="cls-1" d="M189.9243,19.788c-.531,0-.929-.398-.929-.93,0-.531,.398-.929,.929-.929s.929,.398,.929,.929c0,.532-.398,.93-.929,.93Zm0-1.062s0,.132,0,0q0,.132,0,0,0,.132,0,0c0,.132,0,0,0,0Z"/>
    <path class="cls-1" d="M197.4893,22.311c-2.92,0-5.707-1.063-7.698-3.187l.664-.664c1.858,1.859,4.38,2.921,7.034,2.921,.929,0,1.858-.133,2.655-.398,4.379-1.195,7.432-5.179,7.432-9.827,0-5.578-4.513-10.093-10.087-10.093-4.645,0-8.759,3.187-9.821,7.702l-.929-.266c1.194-5.046,5.707-8.499,10.75-8.499,6.105,0,11.149,4.914,11.149,11.156,0,5.046-3.318,9.428-8.229,10.756-.929,.266-1.991,.399-2.92,.399Z"/>
    <path class="cls-1" d="M197.4893,12.085c-.531,0-.796-.398-.796-.797,0-.531,.398-.797,.796-.797,.531,0,.796,.399,.796,.797,0,.399-.398,.797-.796,.797Zm0-.93q-.133,0,0,0c-.133,.133,0,.266,0,.266,0-.133,.133-.133,0-.266,.133,0,0,0,0,0Z"/>
    <path class="cls-1" d="M197.1863,10.928l-7.575,7.633,.659,.655,7.575-7.633-.659-.655Z"/>
  </g>
</svg>